<svg width="50" height="20" viewBox="0 0 50 20" fill="none" xmlns="http://www.w3.org/2000/svg">
<g clip-path="url(#clip0_431_3840)">
<path d="M10.8463 17.9272L5.8381 5.21249L4.27973 11.2143H7.52732L5.12434 14.4569H0.92509L4.41059 1.14493H7.70575L10.7154 8.88182L12.7377 1.14493H15.2359L10.8463 17.9272ZM5.81431 6.60627L7.31319 10.4747H4.80315L5.81431 6.60627ZM7.74144 11.584L10.8106 19.3494L15.7712 0.376925H12.6069L10.7511 7.4596L8.01505 0.376925H4.27973L0.40167 15.2249H5.06486L7.74144 11.584ZM10.7868 20.0036L7.63438 12.0107L5.02918 15.5663H0.151855L4.20836 0.0355911H8.1459L10.763 6.83382L12.5355 0.0355911H15.9972L10.7868 20.0036ZM6.90873 10.1049L5.79051 7.26049L5.05297 10.1049H6.90873Z" fill="#FE5900"/>
<path d="M12.3159 15.1112L16.2535 0.0355911H19.6794L15.7419 15.1112H12.3159ZM15.7063 14.7698L19.4772 0.376925H16.2892L12.5181 14.7698H15.7063ZM12.9821 14.0303L16.3486 1.11648H19.0132L15.6468 14.0303H12.9821Z" fill="#FE5900"/>
<path d="M18.9695 16.5903L22.1814 4.27383H19.5048L20.3256 1.14494H29.1286L28.3078 4.27383H24.6557L22.8357 11.2427H25.5122L24.9888 11.8685C24.7271 12.1245 24.4297 12.4089 24.0966 12.7503C23.7516 13.0916 23.3948 13.4329 23.0379 13.7743C22.6691 14.1156 22.3122 14.4569 21.9554 14.7983C21.5985 15.1396 21.2773 15.4241 20.9918 15.7085C20.7063 15.9929 20.4803 16.1921 20.3018 16.3627C20.1234 16.5334 20.0282 16.5903 20.0282 16.5903H18.9695ZM21.6699 5.01339L18.446 17.3583H19.826C19.8379 17.3583 19.945 17.2729 20.1353 17.1023C20.3256 16.9316 20.5635 16.7325 20.8609 16.4481C21.1464 16.1636 21.4795 15.8507 21.8483 15.5094C22.2171 15.1681 22.5977 14.7983 22.9784 14.4285C23.3591 14.0872 23.716 13.7458 24.0728 13.4045C24.4297 13.0632 24.739 12.7787 25.0007 12.4943L26.6542 10.5032H23.3472L24.7866 5.01339H28.4386L29.6401 0.405383H20.1948L18.9933 5.01339H21.6699ZM18.2081 17.6996L21.4319 5.35473H18.7435L20.1353 0.0640488H29.8899L28.4981 5.35473H24.8461L23.597 10.1334H27.2015L25.0483 12.7503C24.7747 13.0347 24.4535 13.3476 24.0966 13.6889C23.7397 14.0303 23.3591 14.4001 22.9784 14.7414C22.5858 15.1112 22.2052 15.4809 21.8245 15.8223C21.4438 16.1921 21.1108 16.5049 20.8015 16.7894C20.4922 17.0738 20.2423 17.2729 20.052 17.4436C19.8617 17.6143 19.7546 17.6996 19.7308 17.6996H18.2081Z" fill="#FE5900"/>
<path d="M27.0312 14.0303L30.3978 1.11648H39.177L37 9.47916H34.4186L36.2625 14.0303H33.2647L31.3613 9.47916L32.1941 6.29338H35.3584L35.8818 4.27381H32.0513L29.5056 14.0303H27.0312ZM30.2788 0.376925L26.5078 14.7698H29.6364L32.1941 5.01338H35.3703L35.2275 5.55382H32.0632L30.9331 9.87738L32.9792 14.7698H37.1428L35.287 10.2187H37.119L39.7004 0.376925H30.2788ZM26.2699 15.1112L30.2074 0.0355911H39.9383L37.1903 10.56H35.7153L37.5591 15.1112H32.8364L30.8974 10.5032L29.6959 15.1112H26.2699Z" fill="#FE5900"/>
<path d="M37.0799 14.0303L40.4465 1.11648H49.1781L45.8115 14.0303H37.0799ZM45.9067 4.27381H42.0881L40.3751 10.8445H44.1937L45.9067 4.27381ZM40.8866 10.1049L42.219 5.01338H45.3833L44.0509 10.1049H40.8866ZM40.3275 0.376925L36.5565 14.7698H45.9305L49.7015 0.376925H40.3275ZM36.3186 15.1112L40.2561 0.0355911H49.9394L46.0019 15.1112H36.3186ZM42.2785 5.35471L41.1245 9.7636H43.9915L45.1454 5.35471H42.2785Z" fill="#FE5900"/>
</g>
<defs>
<clipPath id="clip0_431_3840">
<rect width="50" height="20" fill="white"/>
</clipPath>
</defs>
</svg>
