<svg width="240" height="40" viewBox="0 0 240 40" fill="none" xmlns="http://www.w3.org/2000/svg">
<path d="M52.0622 35.8544L28.023 10.4251L20.5428 22.4286H36.1312L24.5969 28.914H4.44053L21.1709 2.28996H36.9877L51.4341 17.7638L61.1412 2.28996H73.1323L52.0622 35.8544ZM27.9088 13.2126L35.1034 20.9495H23.0552L27.9088 13.2126ZM37.159 23.1682L51.8909 38.6989L75.7018 0.753957H60.5131L51.6054 14.9193L38.4723 0.753957H20.5428L1.92811 30.45H24.3114L37.159 23.1682ZM51.7767 40.0073L36.6451 24.0215L24.1401 31.1326H0.729004L20.2002 0.0712891H39.1004L51.6625 13.6678L60.1705 0.0712891H76.7867L51.7767 40.0073ZM33.162 20.21L27.7946 14.5211L24.2543 20.21H33.162Z" fill="#FE5900"/>
<path d="M59.1162 30.2224L78.0164 0.0712891H94.461L75.5611 30.2224H59.1162ZM75.3898 29.5398L93.4903 0.753957H78.1877L60.0869 29.5398H75.3898ZM62.3138 28.0606L78.4732 2.23307H91.2634L75.1043 28.0606H62.3138Z" fill="#FE5900"/>
<path d="M91.0534 33.1804L106.471 8.54749H93.623L97.5629 2.28971H139.817L135.877 8.54749H118.347L109.611 22.4853H122.459L119.946 23.7368C118.69 24.2488 117.263 24.8177 115.664 25.5004C114.008 26.1831 112.295 26.8657 110.582 27.5484C108.812 28.2311 107.099 28.9137 105.386 29.5964C103.673 30.2791 102.131 30.848 100.76 31.4168C99.3901 31.9857 98.3052 32.384 97.4487 32.7253C96.5922 33.0666 96.1354 33.1804 96.1354 33.1804H91.0534ZM104.015 10.0266L88.5409 34.7164H95.1647C95.2218 34.7164 95.7357 34.5457 96.6493 34.2044C97.5629 33.8631 98.7049 33.4648 100.132 32.896C101.503 32.3271 103.102 31.7013 104.872 31.0186C106.642 30.336 108.469 29.5964 110.296 28.8568C112.123 28.1742 113.836 27.4915 115.549 26.8088C117.263 26.1262 118.747 25.5573 120.003 24.9884L127.94 21.0062H112.066L118.976 10.0266H136.505L142.272 0.810598H96.9348L91.1676 10.0266H104.015ZM87.3989 35.3991L102.873 10.7093H89.9685L96.6493 0.12793H143.472L136.791 10.7093H119.261L113.265 20.2666H130.567L120.232 25.5004C118.918 26.0693 117.377 26.6951 115.664 27.3777C113.951 28.0604 112.123 28.8 110.296 29.4826C108.412 30.2222 106.585 30.9617 104.758 31.6444C102.93 32.384 101.332 33.0097 99.8469 33.5786C98.3623 34.1475 97.1632 34.5457 96.2496 34.8871C95.336 35.2284 94.8221 35.3991 94.7079 35.3991H87.3989Z" fill="#FE5900"/>
<path d="M129.75 28.0606L145.909 2.23307H188.049L177.6 18.9584H165.209L174.06 28.0606H159.67L150.534 18.9584L154.531 12.5869H169.72L172.233 8.54774H153.846L141.627 28.0606H129.75ZM145.338 0.753957L127.237 29.5398H142.255L154.531 10.0269H169.777L169.092 11.1078H153.903L148.479 19.7549L158.3 29.5398H178.285L169.378 20.4375H178.171L190.562 0.753957H145.338ZM126.095 30.2224L144.996 0.0712891H191.704L178.514 21.1202H171.433L180.284 30.2224H157.615L148.308 21.0064L142.54 30.2224H126.095Z" fill="#FE5900"/>
<path d="M177.984 28.0606L194.143 2.23307H236.055L219.895 28.0606H177.984ZM220.352 8.54774H202.023L193.801 21.6891H212.13L220.352 8.54774ZM196.256 20.21L202.651 10.0269H217.84L211.445 20.21H196.256ZM193.572 0.753957L175.471 29.5398H220.466L238.567 0.753957H193.572ZM174.329 30.2224L193.23 0.0712891H239.709L220.809 30.2224H174.329ZM202.937 10.7095L197.398 19.5273H211.159L216.698 10.7095H202.937Z" fill="#FE5900"/>
</svg>
