<svg width="180" height="40" viewBox="0 0 180 40" fill="none" xmlns="http://www.w3.org/2000/svg">
<g clip-path="url(#clip0_431_9984)">
<path d="M39.0468 35.8543L21.0173 10.425L15.4072 22.4285H27.0985L18.4478 28.9139H3.33052L15.8783 2.28985H27.7409L38.5757 17.7636L45.856 2.28985H54.8493L39.0468 35.8543ZM20.9317 13.2125L26.3277 20.9494H17.2915L20.9317 13.2125ZM27.8694 23.1681L38.9183 38.6988L56.7764 0.753851H45.3849L38.7042 14.9192L28.8544 0.753851H15.4072L1.44621 30.4499H18.2337L27.8694 23.1681ZM38.8327 40.0072L27.484 24.0214L18.1052 31.1325H0.546875L15.1503 0.0711823H29.3254L38.747 13.6676L45.128 0.0711823H57.5901L38.8327 40.0072ZM24.8716 20.2099L20.846 14.521L18.1909 20.2099H24.8716Z" fill="#FE5900"/>
<path d="M44.3369 30.2223L58.5121 0.0711823H70.8455L56.6706 30.2223H44.3369ZM56.5421 29.5396L70.1175 0.753851H58.6406L45.0649 29.5396H56.5421ZM46.7351 28.0605L58.8547 2.23296H68.4473L56.328 28.0605H46.7351Z" fill="#FE5900"/>
<path d="M68.2902 33.1806L79.853 8.54766H70.2173L73.1723 2.28988H104.863L101.908 8.54766H88.7607L82.2084 22.4855H91.8441L89.9598 23.737C89.0176 24.249 87.947 24.8179 86.7479 25.5006C85.506 26.1832 84.2212 26.8659 82.9364 27.5486C81.6089 28.2312 80.3241 28.9139 79.0393 29.5966C77.7546 30.2792 76.5983 30.8481 75.5705 31.417C74.5427 31.9859 73.729 32.3841 73.0866 32.7255C72.4443 33.0668 72.1017 33.1806 72.1017 33.1806H68.2902ZM78.0115 10.0268L66.4058 34.7166H71.3736C71.4164 34.7166 71.8019 34.5459 72.4871 34.2046C73.1723 33.8632 74.0288 33.465 75.0994 32.8961C76.1272 32.3272 77.3263 31.7015 78.6539 31.0188C79.9815 30.3361 81.3519 29.5966 82.7223 28.857C84.0927 28.1743 85.3775 27.4917 86.6622 26.809C87.947 26.1263 89.0605 25.5575 90.0026 24.9886L95.9553 21.0063H84.0499L89.2318 10.0268H102.379L106.704 0.810766H72.7012L68.3759 10.0268H78.0115ZM65.5493 35.3992L77.155 10.7095H67.4765L72.4871 0.128098H107.604L102.593 10.7095H89.4459L84.9492 20.2668H97.9253L90.1739 25.5006C89.1889 26.0695 88.0327 26.6952 86.7479 27.3779C85.4631 28.0606 84.0927 28.8001 82.7223 29.4828C81.3091 30.2223 79.9387 30.9619 78.5683 31.6446C77.1979 32.3841 75.9988 33.0099 74.8853 33.5788C73.7718 34.1477 72.8725 34.5459 72.1873 34.8872C71.5021 35.2286 71.1167 35.3992 71.031 35.3992H65.5493Z" fill="#FE5900"/>
<path d="M97.3121 28.0605L109.432 2.23296H141.037L133.2 18.9583H123.907L130.545 28.0605H119.753L112.901 18.9583L115.898 12.5868H127.29L129.174 8.54763H115.384L106.22 28.0605H97.3121ZM109.003 0.753851L95.4278 29.5396H106.691L115.898 10.0268H127.333L126.819 11.1076H115.427L111.359 19.7548L118.725 29.5396H133.714L127.033 20.4374H133.628L142.921 0.753851H109.003ZM94.5713 30.2223L108.746 0.0711823H143.778L133.885 21.1201H128.575L135.212 30.2223H118.211L111.23 21.0063L106.905 30.2223H94.5713Z" fill="#FE5900"/>
<path d="M133.488 28.0605L145.607 2.23296H177.041L164.922 28.0605H133.488ZM165.264 8.54763H151.517L145.35 21.689H159.097L165.264 8.54763ZM147.192 20.2099L151.988 10.0268H163.38L158.583 20.2099H147.192ZM145.179 0.753851L131.604 29.5396H165.35L178.926 0.753851H145.179ZM130.747 30.2223L144.922 0.0711823H179.782L165.607 30.2223H130.747ZM152.203 10.7094L148.048 19.5272H158.369L162.523 10.7094H152.203Z" fill="#FE5900"/>
</g>
<defs>
<clipPath id="clip0_431_9984">
<rect width="180" height="40" fill="white"/>
</clipPath>
</defs>
</svg>
