<svg width="240" height="40" viewBox="0 0 240 40" fill="none" xmlns="http://www.w3.org/2000/svg">
<g clip-path="url(#clip0_431_9984)">
<path d="M52.0622 35.8543L28.023 10.425L20.5428 22.4285H36.1312L24.5969 28.9139H4.44053L21.1709 2.28985H36.9877L51.4341 17.7636L61.1412 2.28985H73.1323L52.0622 35.8543ZM27.9088 13.2125L35.1034 20.9494H23.0552L27.9088 13.2125ZM37.159 23.1681L51.8909 38.6988L75.7018 0.753851H60.5131L51.6054 14.9192L38.4723 0.753851H20.5428L1.92811 30.4499H24.3114L37.159 23.1681ZM51.7767 40.0072L36.6451 24.0214L24.1401 31.1325H0.729004L20.2002 0.0711823H39.1004L51.6625 13.6676L60.1705 0.0711823H76.7867L51.7767 40.0072ZM33.162 20.2099L27.7946 14.521L24.2543 20.2099H33.162Z" fill="#FE5900"/>
<path d="M59.1162 30.2223L78.0164 0.0711823H94.461L75.5611 30.2223H59.1162ZM75.3898 29.5396L93.4903 0.753851H78.1877L60.0869 29.5396H75.3898ZM62.3138 28.0605L78.4732 2.23296H91.2634L75.1043 28.0605H62.3138Z" fill="#FE5900"/>
<path d="M91.0534 33.1806L106.471 8.54766H93.623L97.5629 2.28988H139.817L135.877 8.54766H118.347L109.611 22.4855H122.459L119.946 23.737C118.69 24.249 117.263 24.8179 115.664 25.5006C114.008 26.1832 112.295 26.8659 110.582 27.5486C108.812 28.2312 107.099 28.9139 105.386 29.5966C103.673 30.2792 102.131 30.8481 100.76 31.417C99.3901 31.9859 98.3052 32.3841 97.4487 32.7255C96.5922 33.0668 96.1354 33.1806 96.1354 33.1806H91.0534ZM104.015 10.0268L88.5409 34.7166H95.1647C95.2218 34.7166 95.7357 34.5459 96.6493 34.2046C97.5629 33.8632 98.7049 33.465 100.132 32.8961C101.503 32.3272 103.102 31.7015 104.872 31.0188C106.642 30.3361 108.469 29.5966 110.296 28.857C112.123 28.1743 113.836 27.4917 115.549 26.809C117.263 26.1263 118.747 25.5575 120.003 24.9886L127.94 21.0063H112.066L118.976 10.0268H136.505L142.272 0.810766H96.9348L91.1676 10.0268H104.015ZM87.3989 35.3992L102.873 10.7095H89.9685L96.6493 0.128098H143.472L136.791 10.7095H119.261L113.265 20.2668H130.567L120.232 25.5006C118.918 26.0695 117.377 26.6952 115.664 27.3779C113.951 28.0606 112.123 28.8001 110.296 29.4828C108.412 30.2223 106.585 30.9619 104.758 31.6446C102.93 32.3841 101.332 33.0099 99.8469 33.5788C98.3623 34.1477 97.1632 34.5459 96.2496 34.8872C95.336 35.2286 94.8221 35.3992 94.7079 35.3992H87.3989Z" fill="#FE5900"/>
<path d="M129.75 28.0605L145.909 2.23296H188.049L177.6 18.9583H165.209L174.06 28.0605H159.67L150.534 18.9583L154.531 12.5868H169.72L172.232 8.54763H153.846L141.627 28.0605H129.75ZM145.338 0.753851L127.237 29.5396H142.255L154.531 10.0268H169.777L169.092 11.1076H153.903L148.479 19.7548L158.3 29.5396H178.285L169.377 20.4374H178.171L190.562 0.753851H145.338ZM126.095 30.2223L144.995 0.0711823H191.704L178.513 21.1201H171.433L180.283 30.2223H157.615L148.307 21.0063L142.54 30.2223H126.095Z" fill="#FE5900"/>
<path d="M177.984 28.0605L194.143 2.23296H236.055L219.896 28.0605H177.984ZM220.352 8.54763H202.023L193.801 21.689H212.13L220.352 8.54763ZM196.256 20.2099L202.651 10.0268H217.84L211.445 20.2099H196.256ZM193.572 0.753851L175.472 29.5396H220.467L238.568 0.753851H193.572ZM174.33 30.2223L193.23 0.0711823H239.71L220.809 30.2223H174.33ZM202.937 10.7094L197.398 19.5272H211.159L216.698 10.7094H202.937Z" fill="#FE5900"/>
</g>
<defs>
<clipPath id="clip0_431_9984">
<rect width="240" height="40" fill="white"/>
</clipPath>
</defs>
</svg>
