<svg width="288" height="48" viewBox="0 0 288 48" fill="none" xmlns="http://www.w3.org/2000/svg">
<g clip-path="url(#clip0_431_4098)">
<path d="M62.4749 43.0257L33.6278 12.5105L24.6516 26.9148H43.3577L29.5165 34.6972H5.32883L25.4053 2.74834H44.3855L61.7211 21.3169L73.3696 2.74834H87.7589L62.4749 43.0257ZM33.4907 15.8556L42.1243 25.1398H27.6665L33.4907 15.8556ZM44.591 27.8022L62.2693 46.439L90.8423 0.90514H72.6159L61.9267 17.9036L46.167 0.90514H24.6516L2.31393 36.5404H29.1739L44.591 27.8022ZM62.1323 48.0092L43.9743 28.8262L28.9684 37.3596H0.875L24.2404 0.0859375H46.9207L61.9952 16.4017L72.2048 0.0859375H92.1442L62.1323 48.0092ZM39.7946 24.2524L33.3537 17.4257L29.1054 24.2524H39.7946Z" fill="#FE5900"/>
<path d="M70.9395 36.2673L93.6197 0.0859375H113.353L90.6733 36.2673H70.9395ZM90.4678 35.4481L112.188 0.905139H93.8253L72.1043 35.4481H90.4678ZM74.7766 33.6732L94.1679 2.68007H109.516L90.1252 33.6732H74.7766Z" fill="#FE5900"/>
<path d="M109.264 39.8163L127.765 10.2568H112.348L117.076 2.74746H167.781L163.053 10.2568H142.017L131.533 26.9821H146.951L143.936 28.484C142.428 29.0984 140.715 29.7811 138.797 30.6003C136.81 31.4195 134.754 32.2387 132.698 33.0579C130.574 33.8771 128.519 34.6963 126.463 35.5155C124.407 36.3347 122.557 37.0173 120.913 37.7C119.268 38.3827 117.966 38.8605 116.939 39.2701C115.911 39.6797 115.363 39.8163 115.363 39.8163H109.264ZM124.818 12.0317L106.249 41.6595H114.198C114.266 41.6595 114.883 41.4547 115.979 41.0451C117.076 40.6355 118.446 40.1576 120.159 39.4749C121.804 38.7923 123.722 38.0413 125.846 37.2221C127.97 36.4029 130.163 35.5155 132.356 34.628C134.548 33.8088 136.604 32.9896 138.66 32.1704C140.715 31.3512 142.497 30.6685 144.004 29.9859L153.529 25.2072H134.48L142.771 12.0317H163.807L170.727 0.972522H116.322L109.401 12.0317H124.818ZM104.879 42.4787L123.448 12.8509H107.962L115.979 0.15332H172.166L164.149 12.8509H143.113L135.919 24.3197H156.68L144.278 30.6003C142.702 31.2829 140.852 32.0339 138.797 32.8531C136.741 33.6723 134.548 34.5597 132.356 35.3789C130.095 36.2664 127.902 37.1539 125.709 37.9731C123.517 38.8605 121.598 39.6115 119.816 40.2941C118.035 40.9768 116.596 41.4547 115.5 41.8643C114.403 42.2739 113.787 42.4787 113.65 42.4787H104.879Z" fill="#FE5900"/>
<path d="M155.7 33.6732L175.091 2.68007H225.659L213.12 22.7505H198.251L208.872 33.6732H191.604L180.641 22.7505L185.438 15.1046H203.664L206.679 10.2577H184.615L169.952 33.6732H155.7ZM174.406 0.905139L152.685 35.4481H170.706L185.438 12.0326H203.733L202.91 13.3297H184.684L178.174 23.7062L189.96 35.4481H213.942L203.253 24.5254H213.805L228.674 0.905139H174.406ZM151.314 36.2673L173.995 0.0859375H230.044L214.216 25.3446H205.72L216.34 36.2673H189.138L177.969 25.2081L171.048 36.2673H151.314Z" fill="#FE5900"/>
<path d="M213.581 33.6732L232.972 2.68007H283.266L263.875 33.6732H213.581ZM264.423 10.2577H242.428L232.561 26.0273H254.556L264.423 10.2577ZM235.507 24.2524L243.181 12.0326H261.408L253.734 24.2524H235.507ZM232.287 0.905139L210.566 35.4481H264.56L286.281 0.905139H232.287ZM209.195 36.2673L231.876 0.0859375H287.651L264.971 36.2673H209.195ZM243.524 12.8518L236.878 23.4332H253.391L260.037 12.8518H243.524Z" fill="#FE5900"/>
</g>
<defs>
<clipPath id="clip0_431_4098">
<rect width="288" height="48" fill="white"/>
</clipPath>
</defs>
</svg>
