<svg width="48" height="48" viewBox="0 0 48 48" fill="none" xmlns="http://www.w3.org/2000/svg">
<path d="M23.9998 1.45361C22.7663 1.45361 21.7498 2.47004 21.7498 3.70356V4.60297C19.806 4.96135 18.098 5.9891 16.8894 7.45362H31.1101C29.9015 5.98896 28.1938 4.96124 26.2498 4.60297V3.70356C26.2498 2.47004 25.2333 1.45361 23.9998 1.45361ZM23.9998 2.95355C24.4283 2.95355 24.7498 3.27508 24.7498 3.70356V4.45357H23.2498V3.70356C23.2498 3.27508 23.5713 2.95355 23.9998 2.95355ZM15.7468 8.95373C14.5133 8.95373 13.4999 9.97318 13.4997 11.2066H34.4997C34.4999 9.97284 33.4848 8.95356 32.2512 8.95356C26.4808 8.93938 20.7048 8.94792 15.7468 8.95373ZM5.99832 12.7123L6.03643 15.7124C6.05788 17.5409 6.31141 19.168 6.75126 20.6269V42.1821L8.99834 38.8057L11.2527 42.1821V27.1103C11.7253 27.4632 12.2298 27.7812 12.7527 28.0815V39.8676L14.9998 36.4971L17.2483 39.8676V29.9477C17.6831 30.0991 18.0761 30.17 18.4729 30.2509C19.0224 30.6697 19.6038 31.0282 20.2146 31.3232C19.7782 31.7342 19.5013 32.3124 19.5013 32.9536C19.5013 34.1278 20.423 35.092 21.5732 35.1948L26.4115 35.1955C27.5682 35.1002 28.4981 34.1325 28.4981 32.9536C28.4981 32.297 28.2044 31.7092 27.7496 31.2968C28.2898 31.0252 28.8062 30.6985 29.2979 30.3256C29.7952 30.2437 30.3227 30.0855 30.751 29.9726V39.8676L32.9981 36.4912L35.2525 39.8676V28.1488C35.7724 27.8567 36.2751 27.5457 36.7466 27.2025V42.182L39.001 38.8056L41.2481 42.182V21.0693C41.7764 19.4881 42.0583 17.7052 42.0347 15.6962L42.0011 12.6948C42.0026 12.2719 41.6548 11.9312 41.232 11.9419C40.8172 11.9533 40.4896 12.2975 40.5011 12.7123L40.5098 13.54L36.0391 14.0966C36.0247 13.8543 36.0199 13.6057 35.9938 13.3715L35.922 12.7007H12.0716L12.0056 13.3759C11.9821 13.6115 11.9785 13.8564 11.9646 14.0966L7.50856 13.5414L7.4983 12.6948C7.4998 12.2719 7.15202 11.9313 6.72928 11.9419C6.31446 11.9533 5.9869 12.2975 5.99832 12.7123ZM40.5262 15.0503L40.5335 15.7124C40.5801 19.6859 39.4402 22.5158 37.4559 24.604C35.9492 26.1895 33.9202 27.3511 31.5042 28.1679C32.2081 27.3051 32.8371 26.3503 33.3807 25.3408C35.0205 22.2955 35.9525 18.7457 36.057 15.6069L40.5262 15.0503ZM7.52762 15.0588L11.9397 15.6081C12.0179 18.9778 12.9507 22.6022 14.6233 25.6291C15.0986 26.4892 15.6405 27.3015 16.239 28.0461C13.9436 27.2123 12.0356 26.0736 10.6038 24.5275C8.70098 22.4728 7.58311 19.6834 7.53641 15.6974L7.52762 15.0588ZM24.013 15.6374L25.3972 19.3054L29.2718 19.6276L26.2425 21.8673L27.0071 24.1364L27.6516 26.0333L24.0027 23.5974L20.3948 26.0026L21.7293 21.8468L18.7498 19.6379L22.5745 19.2907L24.013 15.6374ZM8.25125 23.9152C8.62751 24.4971 9.03918 25.0471 9.50223 25.5471C9.58144 25.6327 9.66975 25.7086 9.75125 25.7917V37.2336L8.99833 36.1041L8.25125 37.2292L8.25125 23.9152ZM39.7483 24.1173V37.2233L39.0012 36.1041L38.2469 37.2335V25.922C38.3435 25.8267 38.4477 25.7391 38.5413 25.6407C38.9865 25.1722 39.3816 24.6573 39.7483 24.1173ZM14.2469 28.8488C14.7325 29.0687 15.2299 29.2783 15.7469 29.4655V34.9088L14.9998 33.7895L14.2469 34.9188V28.8488ZM33.7527 28.9001V34.9191L32.9983 33.7897L32.2512 34.9089V29.4977C32.7673 29.3163 33.2666 29.115 33.7527 28.9001ZM21.2766 36.7018C21.1839 37.1768 21.0854 37.647 21.013 38.0817C20.6713 40.1317 19.7232 41.015 18.8596 41.486C17.9961 41.957 17.2483 41.9562 17.2483 41.9562C16.4983 41.9562 15.6514 41.9163 14.8504 42.3166C14.0494 42.7171 13.4998 43.666 13.4998 44.9577V46.4518H34.4998V44.9577C34.4998 43.666 33.9502 42.7171 33.1492 42.3166C32.3482 41.9161 31.5012 41.9562 30.7512 41.9562C30.7512 41.9562 30.0034 41.957 29.1399 41.486C28.2764 41.015 27.3341 40.1317 26.9925 38.0817L26.9865 38.0704V38.059C26.8779 37.5213 26.8339 37.2996 26.714 36.7026L21.2766 36.7018Z" fill="#FE5900"/>
</svg>
