<svg width="20" height="48" viewBox="0 0 20 48" fill="none" xmlns="http://www.w3.org/2000/svg">
<path d="M4.44492 1.90493C4.4441 1.90411 4.4441 1.90329 4.44328 1.90186C2.27403 3.57244 0.867676 6.18862 0.867676 9.13223C0.867676 9.54373 0.905057 9.94652 0.957903 10.3444C2.32299 10.923 3.70753 10.8753 5.17974 10.8049C6.48696 10.7433 7.19536 11.0044 7.64722 9.87258C7.53558 9.79915 7.44915 9.68762 7.46072 9.54199C7.51613 8.81699 7.53886 8.5161 7.02484 8.05462C6.90276 8.12948 6.78222 8.20486 6.6583 8.28137C6.54237 8.35295 6.36816 8.35828 6.25223 8.28137C6.28838 8.29519 6.32443 8.30851 6.36058 8.32161C6.22109 8.37764 6.07536 8.30236 5.96925 8.21777C5.36634 7.74 5.59954 8.26846 4.64585 8.26846C4.17014 8.26846 3.62806 7.64547 3.28968 7.34704C3.18132 7.25118 3.15377 7.08987 3.18604 6.95571C3.44013 5.89726 3.58043 5.54362 4.25852 5.29188C4.22954 5.1868 4.23927 5.07108 4.29857 4.98351C4.38224 4.86369 4.46048 4.73966 4.54231 4.6184C4.30369 4.54292 4.16737 4.28699 4.29857 4.04529C4.60847 3.47525 4.90824 2.90122 5.19592 2.32073C5.08019 2.30926 4.96447 2.30066 4.8471 2.30701C4.64831 2.30363 4.41737 2.12512 4.44492 1.90493Z" fill="#FE5900"/>
<path d="M17.7155 4.26855C17.7123 4.32314 17.709 4.37732 17.7069 4.43191C17.8481 4.67524 17.672 5.06708 17.3589 5.03646C17.26 5.02663 17.1731 5.01884 17.095 5.01188C17.2772 5.19817 17.4656 5.37883 17.6228 5.58807C17.8883 5.90719 18.1691 6.35597 18.2848 6.75877C18.575 7.7782 18.5713 8.91982 17.8773 9.79608C16.965 10.9459 16.1466 10.4781 15.9746 9.44316C15.4859 9.69807 15.0507 9.80089 14.5255 9.68189C14.3034 11.176 13.8925 13.4423 15.7575 13.6941C15.8367 13.7041 15.8925 13.7356 15.9386 13.7746C16.376 13.5896 16.8173 13.3787 17.254 13.131L18.511 12.4189C18.9058 11.3978 19.132 10.2916 19.132 9.13233C19.1319 7.34407 18.6074 5.6787 17.7155 4.26855Z" fill="#FE5900"/>
<path d="M9.99979 0C8.27933 0 6.67347 0.487186 5.29804 1.31787C5.31811 1.43053 5.29333 1.52045 5.14923 1.50744C5.48843 1.53888 5.58818 1.54052 5.89112 1.65072C6.14952 1.74453 6.24845 1.99381 6.1318 2.24073C5.88416 2.76479 5.61716 3.27799 5.34628 3.78842C5.61716 3.82037 5.83592 4.11799 5.66315 4.38437C5.52458 4.60292 5.3769 4.81615 5.23198 5.03081L5.38489 5.10721C5.69449 5.26135 5.6188 5.76738 5.28903 5.84204C3.47127 6.25446 4.15642 7.71541 5.81278 7.07695C5.98637 7.01028 6.17266 7.12294 6.26688 7.26191C6.3567 7.39618 6.36827 7.45159 6.36069 7.47391C6.38282 7.47309 6.41733 7.47678 6.48708 7.49583C6.5901 7.5241 7.24453 6.98939 7.50979 6.78026C7.51061 6.77944 7.51143 6.77862 7.51143 6.77862C7.5443 6.75189 7.57421 6.72956 7.59264 6.71502C7.98171 6.42427 8.35379 7.02237 8.07983 7.34641C7.51614 8.01292 8.92137 8.38274 7.9134 9.18987C8.21409 8.94961 8.69339 9.16232 8.58545 9.5812C8.41513 10.2407 8.16657 10.8001 7.87479 11.4192C7.81918 11.5366 7.65624 11.6282 7.5274 11.6186C5.34474 11.4436 3.19465 11.9153 1.12915 11.26C1.2289 11.675 1.35528 12.0796 1.50962 12.4703C1.74835 12.5515 2.02651 12.7007 2.44272 12.9536C5.48986 14.8017 8.81557 14.9445 9.7624 14.9445C9.88652 14.9445 9.95709 14.9423 9.96456 14.9415L10.0007 14.94L10.0353 14.9415C10.0439 14.9415 10.1129 14.9445 10.234 14.9445C10.8736 14.9445 12.67 14.8748 14.7275 14.2204C13.9564 13.8297 13.6596 13.0724 13.5841 12.2025C13.5537 12.2095 13.527 12.221 13.4917 12.221C12.9733 12.221 12.9733 11.417 13.4917 11.417C13.5196 11.417 13.5402 11.4272 13.5653 11.4321C13.5907 10.6427 13.7208 9.8274 13.793 9.15618C13.8275 8.83685 14.1042 8.67677 14.3976 8.80879C15.0776 8.97132 15.6632 8.83685 16.1534 8.40681C16.3951 8.25247 16.7863 8.45033 16.7579 8.7542C16.5638 9.1529 16.6676 9.41252 17.0673 9.53296C17.8163 8.57794 17.8979 7.58575 17.3098 6.55679C16.8678 5.88126 16.4233 5.4246 15.8204 4.91816C15.6899 4.80796 15.6649 4.57077 15.7576 4.43097C15.7922 4.38109 15.8249 4.33071 15.8579 4.27991C15.9678 4.11574 16.1234 4.06422 16.3133 4.09505C16.4431 4.11195 16.5724 4.12874 16.7029 4.14554C16.5946 3.77193 16.654 3.45977 16.8946 3.15826C15.217 1.22857 12.7512 0 9.99979 0ZM13.8084 6.66904C13.4379 7.02698 12.7753 6.90213 12.3276 6.83075C12.2037 6.81068 12.0687 6.67313 12.0474 6.55003C11.9423 5.9422 11.5597 5.54698 10.972 5.3738C10.8235 5.33027 10.7451 5.22837 10.7118 5.11448C10.368 4.98472 10.4249 4.36256 10.8768 4.33368C11.8843 4.26833 13.1304 4.79106 13.755 5.59819C14 5.91516 14.1385 6.35186 13.8084 6.66904ZM13.4379 4.22235C13.3455 3.97901 13.1066 4.02653 12.8867 4.04814C12.7626 4.06105 12.6699 4.02152 12.6059 3.95699C12.5681 3.96846 12.5305 3.98147 12.4848 3.98147C11.9664 3.98147 11.9664 3.17741 12.4848 3.17741C12.6026 3.17741 12.6888 3.22176 12.7524 3.28495C12.7934 3.26652 12.8348 3.2488 12.8867 3.24409C13.5187 3.18131 13.9828 3.40355 14.2122 4.0081C14.3966 4.49447 13.6192 4.70257 13.4379 4.22235Z" fill="#FE5900"/>
<path d="M9.99975 47.9996C10.0946 48.0004 10.1621 48.0004 10.1894 48.0004V47.9975C11.7891 47.9675 17.7674 47.663 17.7674 44.5906C17.7674 44.5906 16.4876 40.9444 14.5468 38.6235C14.5468 38.6235 12.5727 40.0398 9.99986 40.0398C7.26866 40.0398 5.45316 38.6235 5.45316 38.6235C3.51148 40.9444 2.23242 44.5906 2.23242 44.5906C2.23242 47.663 8.21016 47.9675 9.80998 47.9975V48.0004C9.83722 48.0004 9.90492 48.0004 9.99975 47.9996Z" fill="#FE5900"/>
<path d="M18.4124 14.394C17.8867 14.9634 17.407 15.5712 16.9633 16.2079C14.4507 19.8167 13.1583 24.3812 11.8741 28.4555C10.8157 31.8118 9.25588 36.0815 6.00391 37.7515C6.68066 38.1829 8.09972 38.9056 9.99982 38.9056C12.7049 38.9056 14.4385 37.4375 14.4385 37.4375C14.4385 24.1339 16.903 17.3165 18.5205 14.2725C18.4834 14.3122 18.4494 14.3544 18.4124 14.394Z" fill="#FE5900"/>
<path d="M1.23132 13.7943C1.24515 13.8226 1.26501 13.8596 1.28038 13.8902C1.32943 13.9857 1.37542 14.0781 1.43902 14.1964C3.03392 17.1695 5.49668 23.8675 5.5568 36.9508C9.41845 35.0855 10.7083 29.0162 11.8003 25.3462C12.5518 22.8248 13.5101 20.1973 14.8386 17.8022C14.977 17.553 15.1309 17.3142 15.277 17.0697C15.474 16.7411 15.6771 16.4167 15.8893 16.0996C16.4261 15.3003 17.0048 14.5338 17.6496 13.8296C14.4886 15.621 11.133 15.7498 10.2332 15.7498C10.0819 15.7498 10.0006 15.7455 10.0006 15.7455C10.0006 15.7455 9.9171 15.7498 9.76236 15.7498C8.83069 15.7498 5.32207 15.6105 2.09345 13.6802C2.07061 13.6664 2.04828 13.6554 2.02596 13.6416C1.78272 13.4945 1.59008 13.3824 1.44045 13.308C1.29881 13.2374 1.19517 13.1992 1.13085 13.1992C0.994947 13.1992 1.02885 13.3689 1.19752 13.7238C1.20889 13.747 1.21842 13.7716 1.23132 13.7943Z" fill="#FE5900"/>
</svg>
