<svg width="18" height="42" viewBox="0 0 18 42" fill="none" xmlns="http://www.w3.org/2000/svg">
<path d="M17.2501 9.00016C17.2579 8.93791 17.2579 8.87492 17.2501 8.81266C17.2501 8.62516 17.2501 8.43766 17.2501 8.25016C17.245 6.30607 16.5534 4.42625 15.2975 2.94229C14.0416 1.45833 12.3019 0.465567 10.3854 0.139126C8.46893 -0.187315 6.49872 0.173537 4.82232 1.15803C3.14593 2.14252 1.87107 3.6874 1.2226 5.52016C0.54427 7.4083 0.597786 9.48203 1.3726 11.3327L0.832604 12.4127C0.774575 12.5312 0.74887 12.663 0.758089 12.7947C0.767307 12.9264 0.811121 13.0533 0.885104 13.1627C0.885104 13.1627 1.1851 13.6052 1.6351 14.3702C3.74426 18.0895 4.91071 22.2687 5.0326 26.5427C5.07881 27.8533 5.04876 29.1655 4.9426 30.4727C4.9426 30.7952 4.8826 31.1102 4.8526 31.4252L4.7776 32.0102C4.63936 33.0215 4.43898 34.0234 4.1776 35.0102C3.91693 35.9966 3.58865 36.9639 3.1951 37.9052C2.7666 38.9091 2.24956 39.8729 1.6501 40.7852C1.57849 40.8959 1.53731 41.0235 1.53073 41.1551C1.52414 41.2868 1.55238 41.4179 1.6126 41.5352C1.66516 41.6643 1.75265 41.7761 1.86526 41.8583C1.97786 41.9404 2.11113 41.9895 2.2501 42.0002H15.7501C15.8858 41.9998 16.0188 41.9626 16.135 41.8926C16.2513 41.8226 16.3463 41.7224 16.4101 41.6027C16.4703 41.4854 16.4986 41.3543 16.492 41.2226C16.4854 41.091 16.4442 40.9634 16.3726 40.8527C15.7732 39.9404 15.2561 38.9766 14.8276 37.9727C14.4305 37.0319 14.0997 36.0646 13.8376 35.0777C13.0991 32.0924 12.8209 29.0119 13.0126 25.9427C15.8176 21.4352 17.2501 15.7502 17.2501 9.00016ZM5.4526 36.0002H12.5476C12.6901 36.5102 12.8551 37.0127 13.0351 37.5002H4.9651C5.1376 37.0127 5.3026 36.5102 5.4526 36.0002ZM11.6326 25.3127C10.3861 27.3105 8.76663 29.0496 6.8626 30.4352C11.1376 20.2127 10.1176 12.9602 9.3751 10.0802C10.4923 10.3294 11.6359 10.4402 12.7801 10.4102C13.7815 10.384 14.7771 10.2508 15.7501 10.0127C15.5851 16.1102 14.2501 21.2627 11.6326 25.3127Z" fill="#FE5900"/>
</svg>
