<svg width="42" height="44" viewBox="0 0 42 44" fill="none" xmlns="http://www.w3.org/2000/svg">
<path d="M19.1094 39.5H22.8909C22.9245 38.9871 23.0323 38.4819 23.2111 38H18.7861C18.966 38.4817 19.0748 38.987 19.1094 39.5Z" fill="#FE5900"/>
<path d="M28.5 14.75H29.6888L29.4638 14.525L29.3048 14.459L29.3318 14.3937L27.4395 12.5H14.5605L12.6653 14.396L12.6923 14.4612L12.5333 14.5272L12.3083 14.7523H27V16.2523H11.2905L11.5058 20.3397C11.8281 26.2545 14.0674 31.9035 17.8853 36.4325C17.904 36.455 17.916 36.4797 17.9348 36.5022H24.0653C24.084 36.4797 24.096 36.455 24.1148 36.4325C27.9331 31.9029 30.1725 26.253 30.4943 20.3375L30.7095 16.25H28.5V14.75ZM27.15 28.532L25.7603 27.968C26.4247 26.328 26.9083 24.6204 27.2025 22.8755L28.6815 23.1245C28.3695 24.9774 27.856 26.7907 27.15 28.532ZM29.01 20.0405L28.998 20.2603C28.975 20.7002 28.94 21.1395 28.893 21.578L27.4013 21.425C27.4448 21.0125 27.4763 20.6 27.4988 20.183L27.5108 19.9625L29.01 20.0405Z" fill="#FE5900"/>
<path d="M12.75 9.5H29.25V11H12.75V9.5Z" fill="#FE5900"/>
<path d="M23.0251 41H18.9751C18.8385 41.6178 18.5902 42.2055 18.2424 42.734L17.9011 43.25H24.0991L23.7549 42.734C23.4081 42.2052 23.1608 41.6176 23.0251 41Z" fill="#FE5900"/>
<path d="M17.25 36.5V38H18.789C18.59 37.4558 18.3013 36.9488 17.9348 36.5H17.25Z" fill="#FE5900"/>
<path d="M24.7502 38V36.5H24.0654C23.6989 36.9488 23.4102 37.4558 23.2112 38H24.7502Z" fill="#FE5900"/>
<path d="M40.74 7.15325C40.2875 6.50728 39.6896 5.97658 38.9945 5.60389C38.2994 5.2312 37.5265 5.02692 36.738 5.0075C36.738 4.7555 36.75 4.50275 36.75 4.25C36.75 3.25544 36.3549 2.30161 35.6517 1.59835C34.9484 0.895088 33.9946 0.5 33 0.5C32.0054 0.5 31.0516 0.895088 30.3483 1.59835C29.6451 2.30161 29.25 3.25544 29.25 4.25V8H30C30.1989 8 30.3897 8.07902 30.5303 8.21967C30.671 8.36032 30.75 8.55109 30.75 8.75V4.25C30.75 3.65326 30.9871 3.08097 31.409 2.65901C31.831 2.23705 32.4033 2 33 2C33.5967 2 34.169 2.23705 34.591 2.65901C35.0129 3.08097 35.25 3.65326 35.25 4.25C35.25 4.56575 35.241 4.88075 35.235 5.1965C34.5047 5.40138 33.8304 5.76923 33.2629 6.27237C32.6953 6.7755 32.2492 7.40082 31.9583 8.10125L30.75 11L30.1365 12.4715L29.9595 12.8975L31.1062 14.045L33.3428 8.675C33.6905 7.84035 34.3456 7.17124 35.1727 6.806C35.0033 9.79424 34.5304 12.7575 33.7612 15.65C33.2713 17.4823 32.6664 19.2819 31.95 21.038C31.8116 22.8822 31.4938 24.7086 31.0012 26.4912C32.8283 23.1929 34.2427 19.6822 35.2125 16.0385C36.0419 12.9219 36.5377 9.72592 36.6915 6.5045C37.2542 6.51632 37.806 6.66236 38.3009 6.93045C38.7958 7.19855 39.2196 7.58096 39.5368 8.04586C39.8541 8.51076 40.0558 9.04471 40.1251 9.60328C40.1944 10.1619 40.1293 10.7289 39.9353 11.2572L36.0885 21.74C34.5391 25.9574 33.7474 30.4155 33.75 34.9085V41.75H35.25V34.9085C35.2488 30.5919 36.0105 26.309 37.5 22.2575L41.34 11.7733C41.6189 11.0117 41.71 10.1941 41.6056 9.3898C41.5011 8.58552 41.2042 7.81831 40.74 7.15325Z" fill="#FE5900"/>
<path d="M5.32508 6.50375C5.47684 9.72485 5.96883 12.9209 6.79283 16.0385C7.76267 19.6822 9.17704 23.1929 11.0041 26.4912C10.5097 24.7088 10.1902 22.8824 10.0501 21.038C9.33368 19.2819 8.72897 17.4823 8.23958 15.65C7.47725 12.7589 7.00986 9.79806 6.84458 6.81275C7.66373 7.18028 8.31199 7.84624 8.65733 8.675L10.8938 14.0427L12.0406 12.8953L11.8636 12.4692L11.2501 11L10.0418 8.1005C9.75087 7.40065 9.30517 6.7758 8.73818 6.27285C8.17118 5.76989 7.49763 5.4019 6.76808 5.1965C6.76058 4.8815 6.75008 4.568 6.75008 4.25C6.75008 3.65326 6.98713 3.08097 7.40908 2.65901C7.83104 2.23705 8.40334 2 9.00008 2C9.59681 2 10.1691 2.23705 10.5911 2.65901C11.013 3.08097 11.2501 3.65326 11.2501 4.25V8.75C11.2501 8.55109 11.3291 8.36032 11.4697 8.21967C11.6104 8.07902 11.8012 8 12.0001 8H12.7501V4.25C12.7501 3.25544 12.355 2.30161 11.6517 1.59835C10.9485 0.895088 9.99464 0.5 9.00008 0.5C8.00551 0.5 7.05169 0.895088 6.34842 1.59835C5.64516 2.30161 5.25007 3.25544 5.25007 4.25C5.25007 4.505 5.26058 4.754 5.26508 5.0075C4.46498 5.02623 3.68088 5.23554 2.97789 5.61805C2.27491 6.00056 1.6733 6.54525 1.22302 7.20688C0.772739 7.86851 0.486775 8.62801 0.388869 9.42232C0.290962 10.2166 0.383938 11.0228 0.660075 11.774L4.50383 22.2575C5.99207 26.3092 6.75251 30.5921 6.75008 34.9085V41.75H8.25008V34.9085C8.25264 30.4155 7.46095 25.9574 5.91157 21.74L2.06783 11.258C1.87352 10.7287 1.80861 10.1606 1.8785 9.60109C1.94839 9.0416 2.15105 8.50692 2.46958 8.04167C2.78812 7.57642 3.21329 7.19408 3.70962 6.92655C4.20596 6.65902 4.75907 6.51406 5.32282 6.50375H5.32508Z" fill="#FE5900"/>
</svg>
