<svg width="42" height="43" viewBox="0 0 42 43" fill="none" xmlns="http://www.w3.org/2000/svg">
<path d="M5.7936 16.062C2.68516 17.975 0.714224 20.25 0.710943 21.9847C0.708755 22.9887 1.39672 24.2312 2.64907 25.4825C3.51204 26.3455 4.64079 27.2106 5.98719 28.0145C5.67985 27.1494 5.32547 25.9681 5.08266 24.5922C4.53251 21.4761 4.77969 18.5645 5.7936 16.062Z" fill="white"/>
<path d="M39.3509 18.3994C38.3425 17.3909 36.9742 16.3814 35.3183 15.4692C36.7566 19.305 36.6013 22.817 36.1736 25.1938C35.9275 26.5598 35.572 27.6941 35.2614 28.5209C35.338 28.4816 35.4145 28.4389 35.4911 28.3973C39.0633 26.4264 41.2847 23.9359 41.2891 21.8983C41.2913 20.8942 40.6022 19.6517 39.3509 18.3994Z" fill="white"/>
<path d="M33.3736 14.5056C32.9984 14.3383 32.6123 14.1775 32.2153 14.0222C32.1879 14.0255 32.1595 14.0277 32.1311 14.0277C31.92 14.0277 31.7308 13.9358 31.6006 13.7903C28.5534 12.6758 24.9615 11.9441 21.0842 11.9441H21.0229C16.7573 11.9528 13.1873 12.8202 10.5022 13.8067C10.3731 13.9423 10.1893 14.0277 9.98701 14.0277C9.96622 14.0277 9.94654 14.0266 9.92685 14.0255C9.18201 14.3164 8.51372 14.6139 7.92747 14.8972C7.91216 14.9748 7.88263 15.0525 7.83997 15.1247C4.18466 21.288 7.85857 28.86 7.89576 28.9355C7.91654 28.977 7.93185 29.0186 7.94388 29.0613C11.4319 30.7325 15.9381 31.9378 20.9158 31.9378H20.977C25.3247 31.9302 29.61 31.0628 33.2948 29.4714C33.3079 29.4266 33.3276 29.3828 33.3506 29.3402C33.3594 29.3238 34.3087 27.5738 34.7834 24.8886C35.4156 21.3153 34.9562 17.8634 33.4184 14.6281C33.3987 14.5877 33.3845 14.5472 33.3736 14.5056ZM29.6297 22.6344L26.4633 22.6409L26.46 24.532C26.4589 24.9236 26.1406 25.2419 25.749 25.2419C25.7479 25.2419 25.7479 25.2419 25.7468 25.2419C25.3542 25.2408 25.037 24.9214 25.0381 24.5288L25.0414 22.6442L21.6814 22.6508L21.677 24.5419C21.677 24.9334 21.3587 25.2506 20.9661 25.2506H20.965C20.5723 25.2506 20.2551 24.9313 20.2551 24.5386L20.2595 22.653L16.8984 22.6606L16.8951 24.5506C16.894 24.9433 16.5758 25.2605 16.1842 25.2605H16.1831C15.7904 25.2594 15.4722 24.9411 15.4733 24.5484L15.4765 22.6628L12.3725 22.6694H12.3714C11.9787 22.6694 11.6615 22.3522 11.6604 21.9595C11.6593 21.5669 11.9776 21.2475 12.3703 21.2475L15.4798 21.2409L15.4842 18.9342C15.4853 18.5427 15.8036 18.2244 16.1951 18.2244H16.1962C16.5889 18.2255 16.9072 18.5448 16.9061 18.9375L16.9017 21.2388L20.2617 21.2311L20.2672 18.9244C20.2672 18.5317 20.5876 18.2123 20.9792 18.2156C21.3719 18.2156 21.689 18.535 21.689 18.9277L21.6836 21.2289L25.0447 21.2213L25.049 18.9156C25.049 18.523 25.3673 18.2058 25.76 18.2058H25.7611C26.1537 18.2069 26.4709 18.5252 26.4709 18.9178L26.4665 21.2191L29.6275 21.2125H29.6286C30.0212 21.2125 30.3384 21.5308 30.3395 21.9223C30.3406 22.315 30.0223 22.6344 29.6297 22.6344Z" fill="white"/>
<path d="M33.1133 40.0862H9.00375C8.62203 40.0862 8.3125 40.3958 8.3125 40.7775V41.5978C8.3125 41.9795 8.62203 42.289 9.00375 42.289H33.1133C33.495 42.289 33.8045 41.9795 33.8045 41.5978V40.7775C33.8045 40.3958 33.495 40.0862 33.1133 40.0862Z" fill="white"/>
<path d="M29.2808 32.3239C26.6273 32.9977 23.8142 33.3542 20.9803 33.3597H20.9169C18.0469 33.3597 15.3212 32.9725 12.8373 32.3294C12.3539 32.2047 11.8792 32.0702 11.4155 31.9258V38.6644H30.7027V31.928C30.2345 32.0712 29.7609 32.2025 29.2808 32.3239Z" fill="white"/>
<path d="M21.0197 10.5222H21.0831C24.7745 10.5222 28.2264 11.162 31.2353 12.165C31.7745 12.3444 32.2995 12.5358 32.8081 12.737C32.597 10.8678 31.3567 9.14953 29.2633 7.84906C27.5319 6.77172 25.3597 6.07609 23.0092 5.82891C23.6852 5.2525 24.1139 4.395 24.1139 3.43797C24.1139 1.70109 22.7008 0.289062 20.965 0.289062C19.2292 0.289062 17.8172 1.70109 17.8172 3.43797C17.8172 4.40375 18.2547 5.27 18.9416 5.8475C16.6545 6.11 14.5447 6.79797 12.8548 7.84906C10.7625 9.14953 9.52219 10.8667 9.31 12.7359C9.82625 12.5325 10.3502 12.3411 10.8828 12.1661C14.0853 11.0986 17.5514 10.5287 21.0197 10.5222ZM20.965 1.71094C21.9177 1.71094 22.692 2.48531 22.692 3.43797C22.692 4.38953 21.9177 5.16391 20.965 5.16391C20.0134 5.16391 19.2391 4.38953 19.2391 3.43797C19.2391 2.48531 20.0134 1.71094 20.965 1.71094Z" fill="white"/>
</svg>
