<svg width="39" height="46" viewBox="0 0 39 46" fill="none" xmlns="http://www.w3.org/2000/svg">
<path d="M22.9978 41.375H15.9978V39.625H22.9978V41.375ZM38.7478 4.625V20.375C38.7479 20.4899 38.7253 20.6037 38.6813 20.7099C38.6374 20.8161 38.5729 20.9126 38.4917 20.9939C38.4104 21.0751 38.3139 21.1396 38.2077 21.1835C38.1015 21.2275 37.9877 21.2501 37.8728 21.25H31.7478V24.3296C31.7486 24.5922 31.6898 24.8515 31.576 25.0882C31.4622 25.3248 31.2963 25.5326 31.0907 25.6959L22.9098 32.2422C22.6807 32.4234 22.4104 32.5452 22.1228 32.5966V35.25H27.3728C27.4877 35.2499 27.6015 35.2725 27.7077 35.3165C27.8139 35.3604 27.9104 35.4249 27.9917 35.5061C28.0729 35.5874 28.1374 35.6839 28.1813 35.7901C28.2253 35.8963 28.2479 36.0101 28.2478 36.125V44.875C28.2479 44.9899 28.2253 45.1037 28.1813 45.2099C28.1374 45.3161 28.0729 45.4126 27.9917 45.4939C27.9104 45.5751 27.8139 45.6396 27.7077 45.6835C27.6015 45.7275 27.4877 45.7501 27.3728 45.75H11.6228C11.5079 45.7501 11.3941 45.7275 11.2879 45.6835C11.1817 45.6396 11.0852 45.5751 11.0039 45.4939C10.9227 45.4126 10.8582 45.3161 10.8143 45.2099C10.7703 45.1037 10.7477 44.9899 10.7478 44.875V36.125C10.7477 36.0101 10.7703 35.8963 10.8143 35.7901C10.8582 35.6839 10.9227 35.5874 11.0039 35.5061C11.0852 35.4249 11.1817 35.3604 11.2879 35.3165C11.3941 35.2725 11.5079 35.2499 11.6228 35.25H16.8728V32.5965C16.5858 32.5454 16.316 32.424 16.0875 32.243L7.90405 25.6959C7.6987 25.5324 7.533 25.3246 7.41936 25.088C7.30571 24.8513 7.24706 24.5921 7.2478 24.3296V21.25H1.1228C1.00788 21.2501 0.894066 21.2275 0.787876 21.1835C0.681686 21.1396 0.5852 21.0751 0.503935 20.9939C0.422671 20.9126 0.358221 20.8161 0.314272 20.7099C0.270323 20.6037 0.247736 20.4899 0.247803 20.375V4.625C0.247736 4.51007 0.270323 4.39626 0.314272 4.29007C0.358221 4.18388 0.422671 4.0874 0.503935 4.00613C0.5852 3.92487 0.681686 3.86042 0.787876 3.81647C0.894066 3.77252 1.00788 3.74993 1.1228 3.75H7.2478V2C7.24841 1.53606 7.43298 1.09129 7.76103 0.763231C8.08909 0.435173 8.53386 0.250604 8.9978 0.25H29.9978C30.4617 0.250604 30.9065 0.435173 31.2346 0.763231C31.5626 1.09129 31.7472 1.53606 31.7478 2V3.75H37.8728C37.9877 3.74993 38.1015 3.77252 38.2077 3.81647C38.3139 3.86042 38.4104 3.92487 38.4917 4.00613C38.5729 4.0874 38.6374 4.18388 38.6813 4.29007C38.7253 4.39626 38.7479 4.51007 38.7478 4.625ZM7.2478 8.125H4.6228V16.875H7.2478V8.125ZM15.1228 37.875C15.0079 37.8749 14.8941 37.8975 14.7879 37.9415C14.6817 37.9854 14.5852 38.0499 14.5039 38.1311C14.4227 38.2124 14.3582 38.3089 14.3143 38.4151C14.2703 38.5213 14.2477 38.6351 14.2478 38.75V42.25C14.2477 42.3649 14.2703 42.4787 14.3143 42.5849C14.3582 42.6911 14.4227 42.7876 14.5039 42.8689C14.5852 42.9501 14.6817 43.0146 14.7879 43.0585C14.8941 43.1025 15.0079 43.1251 15.1228 43.125H23.8728C23.9877 43.1251 24.1015 43.1025 24.2077 43.0585C24.3139 43.0146 24.4104 42.9501 24.4917 42.8689C24.5729 42.7876 24.6374 42.6911 24.6813 42.5849C24.7253 42.4787 24.7479 42.3649 24.7478 42.25V38.75C24.7479 38.6351 24.7253 38.5213 24.6813 38.4151C24.6374 38.3089 24.5729 38.2124 24.4917 38.1311C24.4104 38.0499 24.3139 37.9854 24.2077 37.9415C24.1015 37.8975 23.9877 37.8749 23.8728 37.875H15.1228ZM26.4978 14.25C26.4978 9.08033 21.8028 4.625 19.4978 4.625C17.1928 4.625 12.4978 9.08033 12.4978 14.25C12.4978 19.4197 17.1928 23.875 19.4978 23.875C21.8028 23.875 26.4978 19.4197 26.4978 14.25ZM34.3728 8.125H31.7478V16.875H34.3728V8.125ZM21.4567 7.51281C20.9251 6.95504 20.2456 6.56035 19.4978 6.375C18.75 6.56035 18.0705 6.95504 17.5389 7.51281C18.1144 7.91143 18.7978 8.125 19.4978 8.125C20.1978 8.125 20.8812 7.91143 21.4567 7.51281ZM17.4288 20.8911C17.9849 21.4935 18.7035 21.9221 19.4978 22.125C20.2921 21.9221 21.0107 21.4935 21.5668 20.8911C20.968 20.448 20.2427 20.2088 19.4978 20.2088C18.7529 20.2088 18.0276 20.448 17.4288 20.8911ZM22.6767 8.79764C23.9647 10.3281 24.6949 12.2504 24.7478 14.25C24.6983 16.2047 23.998 18.0871 22.7579 19.5988C21.8316 18.8607 20.6822 18.4588 19.4978 18.4588C18.3134 18.4588 17.1641 18.8607 16.2378 19.5988C14.9976 18.0871 14.2973 16.2047 14.2478 14.25C14.3007 12.2504 15.0309 10.3281 16.3189 8.79765C17.2313 9.49636 18.3486 9.875 19.4978 9.875C20.647 9.875 21.7643 9.49636 22.6767 8.79764ZM20.3728 15.125V13.375C20.6049 13.375 20.8274 13.2828 20.9915 13.1187C21.1556 12.9546 21.2478 12.7321 21.2478 12.5C21.2478 12.2679 21.1556 12.0454 20.9915 11.8813C20.8274 11.7172 20.6049 11.625 20.3728 11.625C20.3728 11.3929 20.2806 11.1704 20.1165 11.0063C19.9524 10.8422 19.7299 10.75 19.4978 10.75C19.2657 10.75 19.0432 10.8422 18.8791 11.0063C18.715 11.1704 18.6228 11.3929 18.6228 11.625C18.3907 11.625 18.1682 11.7172 18.0041 11.8813C17.84 12.0454 17.7478 12.2679 17.7478 12.5C17.7478 12.7321 17.84 12.9546 18.0041 13.1187C18.1682 13.2828 18.3907 13.375 18.6228 13.375V15.125C18.3907 15.125 18.1682 15.2172 18.0041 15.3813C17.84 15.5454 17.7478 15.7679 17.7478 16C17.7478 16.2321 17.84 16.4546 18.0041 16.6187C18.1682 16.7828 18.3907 16.875 18.6228 16.875C18.6228 17.1071 18.715 17.3296 18.8791 17.4937C19.0432 17.6578 19.2657 17.75 19.4978 17.75C19.7299 17.75 19.9524 17.6578 20.1165 17.4937C20.2806 17.3296 20.3728 17.1071 20.3728 16.875C20.6049 16.875 20.8274 16.7828 20.9915 16.6187C21.1556 16.4546 21.2478 16.2321 21.2478 16C21.2478 15.7679 21.1556 15.5454 20.9915 15.3813C20.8274 15.2172 20.6049 15.125 20.3728 15.125Z" fill="white"/>
</svg>
