<svg width="35" height="48" viewBox="0 0 35 48" fill="none" xmlns="http://www.w3.org/2000/svg">
<path d="M21.8728 36.6174C23.7162 36.1871 25.4855 35.4854 27.1228 34.5352V46.75C27.1245 46.8867 27.0934 47.0219 27.032 47.1441C26.9707 47.2663 26.881 47.372 26.7703 47.4524C26.6599 47.5317 26.5329 47.5852 26.399 47.6087C26.265 47.6322 26.1275 47.6252 25.9966 47.5882L17.4978 45.0385L8.99903 47.5882C8.86837 47.6275 8.73034 47.6357 8.59597 47.6121C8.46159 47.5885 8.33461 47.5337 8.22516 47.4523C8.11572 47.3708 8.02685 47.2649 7.96567 47.1429C7.90449 47.021 7.87269 46.8864 7.87281 46.75V34.5352C9.51009 35.4854 11.2794 36.1871 13.1228 36.6174V40.2858L17.221 38.9203C17.4007 38.8605 17.5949 38.8605 17.7747 38.9203L21.8728 40.2858V36.6174ZM24.0209 14.156C23.1957 15.2201 22.7478 16.5284 22.7478 17.875C22.7478 19.2216 23.1957 20.5299 24.0209 21.594C22.161 23.0751 19.874 23.9187 17.4978 24C15.0532 23.9124 12.7049 23.025 10.8133 21.474C11.7344 20.5021 12.2478 19.214 12.2478 17.875C12.2478 16.536 11.7344 15.2479 10.8133 14.276C12.7049 12.725 15.0532 11.8376 17.4978 11.75C19.874 11.8313 22.161 12.6749 24.0209 14.156ZM21.8728 17.875C21.8728 17.7601 21.8502 17.6463 21.8063 17.5401C21.7623 17.4339 21.6979 17.3375 21.6166 17.2562C21.5353 17.175 21.4389 17.1105 21.3327 17.0665C21.2265 17.0226 21.1127 17 20.9978 17H20.1228V16.125C20.1228 15.8929 20.0306 15.6704 19.8665 15.5063C19.7024 15.3422 19.4799 15.25 19.2478 15.25C19.0157 15.25 18.7932 15.3422 18.6291 15.5063C18.465 15.6704 18.3728 15.8929 18.3728 16.125V17H16.6228V16.125C16.6228 15.8929 16.5306 15.6704 16.3665 15.5063C16.2024 15.3422 15.9799 15.25 15.7478 15.25C15.5157 15.25 15.2932 15.3422 15.1291 15.5063C14.965 15.6704 14.8728 15.8929 14.8728 16.125V17H13.9974C13.7653 17 13.5428 17.0922 13.3787 17.2563C13.2146 17.4204 13.1224 17.6429 13.1224 17.875C13.1224 18.1071 13.2146 18.3296 13.3787 18.4937C13.5428 18.6578 13.7653 18.75 13.9974 18.75H14.8728V19.625C14.8728 19.8571 14.965 20.0796 15.1291 20.2437C15.2932 20.4078 15.5157 20.5 15.7478 20.5C15.9799 20.5 16.2024 20.4078 16.3665 20.2437C16.5306 20.0796 16.6228 19.8571 16.6228 19.625V18.75H18.3728V19.625C18.3728 19.8571 18.465 20.0796 18.6291 20.2437C18.7932 20.4078 19.0157 20.5 19.2478 20.5C19.4799 20.5 19.7024 20.4078 19.8665 20.2437C20.0306 20.0796 20.1228 19.8571 20.1228 19.625V18.75H20.9978C21.1127 18.75 21.2265 18.7274 21.3327 18.6835C21.4389 18.6395 21.5353 18.575 21.6166 18.4938C21.6979 18.4125 21.7623 18.3161 21.8063 18.2099C21.8502 18.1037 21.8728 17.9899 21.8728 17.875ZM25.3537 15.2946C24.798 16.0401 24.4978 16.9451 24.4978 17.875C24.4978 18.8048 24.798 19.7098 25.3537 20.4553C26.1827 19.7863 26.7977 18.8893 27.1228 17.875C26.7977 16.8606 26.1827 15.9636 25.3537 15.2946ZM7.87281 17.875C8.16624 18.8298 8.73122 19.6785 9.49881 20.3176C10.1391 19.6658 10.4978 18.7887 10.4978 17.875C10.4978 16.9613 10.1391 16.0842 9.49881 15.4324C8.73121 16.0715 8.16624 16.9202 7.87281 17.875ZM34.9978 17.875C34.9978 21.3362 33.9715 24.7196 32.0485 27.5975C30.1256 30.4753 27.3925 32.7184 24.1948 34.0429C20.9971 35.3674 17.4784 35.714 14.0837 35.0387C10.6891 34.3635 7.57086 32.6968 5.12344 30.2494C2.67602 27.802 1.00931 24.6837 0.334068 21.2891C-0.341173 17.8944 0.00538521 14.3757 1.32992 11.178C2.65445 7.98033 4.89747 5.24721 7.77533 3.32428C10.6532 1.40136 14.0366 0.375 17.4978 0.375C22.1375 0.380234 26.5856 2.22566 29.8664 5.50641C33.1471 8.78716 34.9926 13.2353 34.9978 17.875ZM32.3728 17.875C32.3728 14.933 31.5004 12.0571 29.8659 9.61089C28.2314 7.16471 25.9083 5.25815 23.1902 4.13229C20.4722 3.00644 17.4813 2.71186 14.5958 3.28582C11.7104 3.85977 9.0599 5.27648 6.9796 7.35679C4.89929 9.43709 3.48258 12.0876 2.90863 14.973C2.33467 17.8585 2.62925 20.8494 3.7551 23.5674C4.88096 26.2855 6.78752 28.6086 9.2337 30.2431C11.6799 31.8776 14.5558 32.75 17.4978 32.75C21.4416 32.7456 25.2225 31.177 28.0112 28.3884C30.7998 25.5997 32.3684 21.8187 32.3728 17.875ZM30.6228 17.875C30.6228 20.4709 29.853 23.0085 28.4109 25.1669C26.9687 27.3253 24.9188 29.0075 22.5205 30.0009C20.1222 30.9943 17.4833 31.2542 14.9373 30.7478C12.3912 30.2414 10.0526 28.9913 8.21703 27.1558C6.38147 25.3202 5.13144 22.9816 4.625 20.4356C4.11857 17.8896 4.37849 15.2506 5.37189 12.8523C6.36529 10.454 8.04756 8.40415 10.206 6.96196C12.3643 5.51977 14.9019 4.75 17.4978 4.75C20.9776 4.75387 24.3137 6.13792 26.7743 8.5985C29.2349 11.0591 30.6189 14.3952 30.6228 17.875ZM28.8728 17.875C28.8728 15.655 23.8287 10 17.4978 10C11.1669 10 6.12281 15.655 6.12281 17.875C6.12281 20.095 11.1669 25.75 17.4978 25.75C23.8287 25.75 28.8728 20.095 28.8728 17.875Z" fill="white"/>
</svg>
