<svg width="32" height="50" viewBox="0 0 32 50" fill="none" xmlns="http://www.w3.org/2000/svg">
<path d="M22.5721 6.07821C22.4706 5.93821 22.3735 5.79471 22.2685 5.65646C22.0918 5.42371 21.9054 5.19708 21.7208 4.96958C21.5939 4.81296 21.4714 4.65196 21.341 4.49796C21.1669 4.29233 20.9831 4.09371 20.8029 3.89333C20.6515 3.72446 20.5036 3.55296 20.3479 3.38758C20.1738 3.20296 19.9909 3.02621 19.8115 2.84683C19.6391 2.67358 19.4703 2.49771 19.2926 2.32883C19.115 2.15996 18.9286 1.99808 18.7458 1.83358C18.5681 1.67346 18.3931 1.51071 18.2103 1.35496C17.5663 0.815084 16.7823 0.542084 15.9974 0.542084C15.2125 0.542084 14.4311 0.814209 13.788 1.35408C13.5876 1.52471 13.396 1.70321 13.2009 1.87908C13.0364 2.02783 12.8684 2.17308 12.7083 2.32533C12.5149 2.50908 12.3303 2.70071 12.143 2.88971C11.9794 3.05508 11.8114 3.21696 11.6513 3.38583C11.4841 3.56346 11.3258 3.74721 11.1639 3.92833C10.9941 4.11821 10.8209 4.30458 10.6573 4.49796C10.519 4.66158 10.3895 4.83046 10.2556 4.99671C10.0789 5.21633 9.89863 5.43333 9.72888 5.65821C9.61951 5.80346 9.518 5.95308 9.41125 6.10008C9.26338 6.30396 9.1155 6.50696 8.97375 6.71521H23.0245C22.8775 6.50083 22.7244 6.29083 22.5721 6.07996V6.07821Z" fill="white"/>
<path d="M31.7657 49.5C28.5369 45.7856 24.2065 41.5436 22.3498 41.2785C21.3969 42.3661 20.3644 43.3951 19.2435 44.3436C18.3187 45.1259 17.1584 45.517 15.999 45.517C14.8397 45.517 13.6777 45.125 12.751 44.3419C11.631 43.3943 10.6003 42.3661 9.64915 41.2794C7.78978 41.5498 3.46378 45.7865 0.235901 49.5H31.7657Z" fill="white"/>
<path d="M24.1261 35.8089C26.5017 31.7008 27.7976 27.0029 27.7976 22.1371C27.7976 21.6357 27.7836 21.1369 27.7565 20.6399C27.7407 20.3442 27.7101 20.0511 27.6838 19.7571C27.6663 19.5576 27.6567 19.3572 27.6348 19.1586C27.5911 18.7604 27.5333 18.3649 27.473 17.9703C27.459 17.8793 27.4502 17.7866 27.4353 17.6956C27.3636 17.2581 27.2778 16.8232 27.1851 16.3909C27.1755 16.3446 27.1685 16.2973 27.158 16.2501C27.0591 15.8021 26.9471 15.3576 26.8263 14.9157C26.8185 14.8859 26.8123 14.8553 26.8036 14.8256C26.6811 14.3828 26.5446 13.9444 26.4002 13.5087C26.3915 13.4807 26.3836 13.4518 26.374 13.4247C26.2305 12.9986 26.0747 12.5777 25.9102 12.1594C25.8962 12.1227 25.884 12.0859 25.87 12.0492C25.7098 11.6458 25.5366 11.2468 25.3572 10.8513C25.3345 10.8023 25.3152 10.7516 25.2933 10.7026C25.1218 10.3298 24.9372 9.96319 24.7491 9.59831C24.7123 9.52831 24.6808 9.45657 24.6432 9.38657C24.4787 9.07419 24.3011 8.76881 24.1243 8.46344H7.87471C7.69796 8.76969 7.52033 9.07594 7.35496 9.38832C7.31733 9.45919 7.28496 9.53182 7.24821 9.60357C7.06008 9.96757 6.87633 10.3333 6.70483 10.7052C6.68383 10.7507 6.66633 10.7971 6.64533 10.8426C6.46421 11.2424 6.28921 11.6449 6.12733 12.0527C6.11683 12.0781 6.10896 12.1052 6.09846 12.1306C5.92958 12.5593 5.77033 12.9916 5.62333 13.4282C5.61896 13.4413 5.61546 13.4553 5.61108 13.4693C5.46058 13.9182 5.32146 14.3706 5.19458 14.8273C5.18583 14.8571 5.17971 14.8886 5.17183 14.9183C5.05108 15.3593 4.93908 15.8038 4.84021 16.2518C4.83146 16.2921 4.82533 16.3323 4.81658 16.3726C4.72208 16.8109 4.63546 17.2519 4.56283 17.6956C4.54621 17.7962 4.53658 17.8986 4.52083 18.0001C4.46221 18.3851 4.40533 18.7709 4.36246 19.1594C4.34146 19.3528 4.33183 19.5488 4.31433 19.7431C4.28808 20.0423 4.25746 20.3398 4.24083 20.6408C4.21371 21.1378 4.19971 21.6366 4.19971 22.1379C4.19971 27.0029 5.49471 31.7008 7.87033 35.8098H24.1243L24.1261 35.8089ZM13.2026 24.6562C12.7187 24.6562 12.3276 24.2642 12.3276 23.7812C12.3276 23.2982 12.7187 22.9062 13.2026 22.9062H15.1241V21.3688H13.2026C12.7187 21.3688 12.3276 20.9768 12.3276 20.4938C12.3276 20.0108 12.7187 19.6188 13.2026 19.6188H15.1241V18.0806H13.2026C12.7187 18.0806 12.3276 17.6886 12.3276 17.2056C12.3276 16.7226 12.7187 16.3306 13.2026 16.3306H15.1241V14.0783C15.1241 13.5953 15.5152 13.2033 15.9991 13.2033C16.483 13.2033 16.8741 13.5953 16.8741 14.0783V16.3306H18.7956C19.2795 16.3306 19.6706 16.7226 19.6706 17.2056C19.6706 17.6886 19.2795 18.0806 18.7956 18.0806H16.8741V19.6188H18.7956C19.2795 19.6188 19.6706 20.0108 19.6706 20.4938C19.6706 20.9768 19.2795 21.3688 18.7956 21.3688H16.8741V22.9062H18.7956C19.2795 22.9062 19.6706 23.2982 19.6706 23.7812C19.6706 24.2642 19.2795 24.6562 18.7956 24.6562H16.8741V26.1944H18.7956C19.2795 26.1944 19.6706 26.5864 19.6706 27.0694C19.6706 27.5524 19.2795 27.9444 18.7956 27.9444H16.8741V30.1967C16.8741 30.6797 16.483 31.0717 15.9991 31.0717C15.5152 31.0717 15.1241 30.6797 15.1241 30.1967V27.9444H13.2026C12.7187 27.9444 12.3276 27.5524 12.3276 27.0694C12.3276 26.5864 12.7187 26.1944 13.2026 26.1944H15.1241V24.6562H13.2026Z" fill="white"/>
</svg>
