<svg width="46" height="46" viewBox="0 0 46 46" fill="none" xmlns="http://www.w3.org/2000/svg">
<path d="M9.57748 24.75C10.1725 25.0825 10.7762 25.3975 11.3975 25.6863C13.9376 26.9016 16.6549 27.705 19.4475 28.0663H19.5612C21.8446 28.355 24.1553 28.355 26.4387 28.0663C29.2699 27.6926 32.023 26.8684 34.5937 25.625C35.215 25.3275 35.8275 25.0125 36.4225 24.68C34.5063 21.5289 33.4929 17.9118 33.4929 14.2238C33.4929 10.5357 34.5063 6.91865 36.4225 3.7675C32.3302 1.4451 27.7053 0.224236 23 0.224236C18.2946 0.224236 13.6698 1.4451 9.57748 3.7675C11.5013 6.92462 12.5128 10.553 12.5 14.25C12.5147 17.9528 11.5031 21.5873 9.57748 24.75ZM16 13.375H17.75V12.5C17.75 12.2679 17.8422 12.0454 18.0063 11.8813C18.1704 11.7172 18.3929 11.625 18.625 11.625C18.857 11.625 19.0796 11.7172 19.2437 11.8813C19.4078 12.0454 19.5 12.2679 19.5 12.5V13.375H22.125V12.5C22.125 12.2679 22.2172 12.0454 22.3813 11.8813C22.5454 11.7172 22.7679 11.625 23 11.625C23.232 11.625 23.4546 11.7172 23.6187 11.8813C23.7828 12.0454 23.875 12.2679 23.875 12.5V13.375H26.5V12.5C26.5 12.2679 26.5922 12.0454 26.7563 11.8813C26.9204 11.7172 27.1429 11.625 27.375 11.625C27.607 11.625 27.8296 11.7172 27.9937 11.8813C28.1578 12.0454 28.25 12.2679 28.25 12.5V13.375H30C30.232 13.375 30.4546 13.4672 30.6187 13.6313C30.7828 13.7954 30.875 14.0179 30.875 14.25C30.875 14.4821 30.7828 14.7046 30.6187 14.8687C30.4546 15.0328 30.232 15.125 30 15.125H28.25V16C28.25 16.2321 28.1578 16.4546 27.9937 16.6187C27.8296 16.7828 27.607 16.875 27.375 16.875C27.1429 16.875 26.9204 16.7828 26.7563 16.6187C26.5922 16.4546 26.5 16.2321 26.5 16V15.125H23.875V16C23.875 16.2321 23.7828 16.4546 23.6187 16.6187C23.4546 16.7828 23.232 16.875 23 16.875C22.7679 16.875 22.5454 16.7828 22.3813 16.6187C22.2172 16.4546 22.125 16.2321 22.125 16V15.125H19.5V16C19.5 16.2321 19.4078 16.4546 19.2437 16.6187C19.0796 16.7828 18.857 16.875 18.625 16.875C18.3929 16.875 18.1704 16.7828 18.0063 16.6187C17.8422 16.4546 17.75 16.2321 17.75 16V15.125H16C15.7679 15.125 15.5454 15.0328 15.3813 14.8687C15.2172 14.7046 15.125 14.4821 15.125 14.25C15.125 14.0179 15.2172 13.7954 15.3813 13.6313C15.5454 13.4672 15.7679 13.375 16 13.375Z" fill="white"/>
<path d="M8.12499 4.7125C7.38681 5.19745 6.67419 5.72023 5.98999 6.27875C7.40502 8.69571 8.14255 11.4493 8.12499 14.25C8.13194 17.0539 7.38227 19.8078 5.95499 22.2213C6.65055 22.7808 7.37487 23.3036 8.12499 23.7875C9.85829 20.9093 10.7664 17.6098 10.75 14.25C10.7678 10.8901 9.85954 7.59015 8.12499 4.7125Z" fill="white"/>
<path d="M4.62499 7.4425L4.48499 7.57375C4.33624 7.705 4.19624 7.845 4.05624 7.99375C3.91624 8.1425 3.56624 8.475 3.33874 8.72C3.2734 8.77743 3.2147 8.842 3.16374 8.9125C2.84874 9.23625 2.55999 9.56001 2.28874 9.90126C2.28874 9.90126 2.28874 9.90125 2.24499 9.945C1.92999 10.3183 1.63833 10.7033 1.36999 11.1C0.68428 12.0103 0.313416 13.1191 0.313416 14.2588C0.313416 15.3984 0.68428 16.5072 1.36999 17.4175C1.66749 17.8083 1.95916 18.1933 2.24499 18.5725C2.24499 18.5725 2.24499 18.5725 2.28874 18.6163C2.56874 18.9575 2.85749 19.2813 3.16374 19.605C3.2147 19.6755 3.2734 19.7401 3.33874 19.7975C3.56624 20.0425 3.80249 20.2875 4.05624 20.5238C4.30999 20.76 4.33624 20.8125 4.48499 20.9438L4.62499 21.075C5.78281 18.9873 6.38537 16.6373 6.37499 14.25C6.38237 11.8687 5.77991 9.52507 4.62499 7.4425Z" fill="white"/>
<path d="M44.7 11.0913C44.5075 10.8375 44.315 10.5838 44.105 10.3388C44.0262 10.2338 43.9387 10.12 43.8425 10.015C43.8065 9.96161 43.7655 9.9118 43.72 9.86625C43.6237 9.74375 43.5188 9.63 43.4138 9.51625L43.3525 9.44625L43.2125 9.28875C43.1765 9.23536 43.1355 9.18555 43.09 9.14L43.0287 9.0875L42.915 9L42.5475 8.615L42.3462 8.41375C42.2887 8.34592 42.2242 8.28433 42.1537 8.23L42.0662 8.125L41.83 7.8975L41.7075 7.775L41.5325 7.60875L41.4625 7.5475C41.4435 7.52265 41.4197 7.50183 41.3925 7.48625C40.234 9.56814 39.626 11.9112 39.626 14.2938C39.626 16.6763 40.234 19.0194 41.3925 21.1013L41.4625 21.0313L41.5325 20.97L41.7075 20.8038L41.83 20.6813L42.0662 20.4538L42.3287 20.1913L42.5475 19.9638L42.915 19.5788L42.985 19.5L43.0462 19.4475C43.0917 19.402 43.1328 19.3521 43.1687 19.2988L43.3087 19.1413L43.37 19.0713C43.4791 18.9609 43.5814 18.844 43.6762 18.7213C43.7217 18.6757 43.7628 18.6259 43.7987 18.5725C43.895 18.4675 43.9825 18.3538 44.0612 18.2488C44.2712 18.0038 44.4637 17.75 44.6562 17.4963C45.342 16.5859 45.7128 15.4772 45.7128 14.3375C45.7128 13.1978 45.342 12.0891 44.6562 11.1788L44.7 11.0913Z" fill="white"/>
<path d="M40.045 6.27875C39.3494 5.71923 38.6251 5.19644 37.875 4.7125C36.1348 7.58944 35.2148 10.8877 35.2148 14.25C35.2148 17.6123 36.1348 20.9106 37.875 23.7875C38.6132 23.3026 39.3258 22.7798 40.01 22.2213C38.5916 19.8042 37.8439 17.0525 37.8439 14.25C37.8439 11.4475 38.5916 8.6958 40.01 6.27875H40.045Z" fill="white"/>
<path d="M32.625 42.25H13.375C12.3664 42.2498 11.3888 42.5981 10.6075 43.2359C9.82615 43.8737 9.28921 44.7618 9.08749 45.75H36.9125C36.7108 44.7618 36.1738 43.8737 35.3925 43.2359C34.6112 42.5981 33.6336 42.2498 32.625 42.25Z" fill="white"/>
<path d="M15.125 35.25H30.875V40.5H15.125V35.25Z" fill="white"/>
<path d="M24.8375 29.9388C24.5225 29.9388 24.225 29.9388 23.9187 29.9388C23.3354 29.9388 22.7229 29.9388 22.0812 29.9388C21.775 29.9388 21.4687 29.9388 21.1625 29.9388L20.375 29.8775C20.2957 31.2352 19.734 32.5199 18.7912 33.5H27.2087C26.2659 32.5199 25.7042 31.2352 25.625 29.8775L24.8375 29.9388Z" fill="white"/>
</svg>
